<svg widht='0' height='0' xmlns='http:www.w3.org/2000/svg'>
    <svg id='logo' width="60" height="46" viewBox="0 0 60 46" fill="none" xmlns="http://www.w3.org/2000/svg">
        <path d="M57.125 17C57.125 20.5028 54.2022 23.7354 49.2906 26.1194C44.3793 28.5031 37.5401 30 29.936 30C22.3319 30 15.4928 28.5031 10.5815 26.1194C5.66979 23.7354 2.74701 20.5028 2.74701 17C2.74701 13.4972 5.66979 10.2645 10.5815 7.88064C15.4928 5.49695 22.3319 4 29.936 4C37.5401 4 44.3793 5.49695 49.2906 7.88064C54.2022 10.2645 57.125 13.4972 57.125 17Z" stroke="#f9f" stroke-width="5"/>
        <path d="M35.1471 30.1498L42.8169 40.3762L9.02197 25.3562C9.02197 25.3562 14.1832 28.7655 18.4375 29.3125C22.8125 29.875 35.1471 30.1498 35.1471 30.1498Z" stroke="#f9f" stroke-width="4"/>
        <path d="M29.4317 22.7623C29.4104 22.8712 29.3465 22.9556 29.24 23.0155C29.1334 23.0808 29.0127 23.1135 28.8777 23.1135H28.8139C28.5226 23.0917 28.1746 23.0727 27.7698 23.0563C27.365 23.04 26.9211 23.0264 26.4381 23.0155C25.9623 23.0046 25.4545 22.9964 24.9147 22.991C24.382 22.9855 23.8423 22.9828 23.2954 22.9828C22.7485 22.9828 22.2087 22.9855 21.676 22.991C21.1434 22.9964 20.6391 23.0046 20.1633 23.0155C19.6945 23.0264 19.2577 23.04 18.8529 23.0563C18.4552 23.0727 18.1178 23.0917 17.8408 23.1135H17.7982C17.6561 23.1135 17.5319 23.0781 17.4254 23.0073C17.3188 22.9365 17.2549 22.8331 17.2336 22.6969C17.2336 22.588 17.2797 22.4928 17.3721 22.411C17.4715 22.3294 17.5922 22.2804 17.7343 22.2641C17.9403 22.2477 18.1747 22.2341 18.4374 22.2232C18.7073 22.2123 19.0021 22.1987 19.3216 22.1824L19.5667 11.8585C18.9559 11.8258 18.338 11.7769 17.713 11.7115C17.5709 11.6951 17.4537 11.6462 17.3614 11.5645C17.2762 11.4828 17.2336 11.3902 17.2336 11.2868C17.2549 11.1452 17.3188 11.039 17.4254 10.9683C17.5319 10.892 17.6561 10.8539 17.7982 10.8539H17.8621C18.6079 10.941 19.3465 11.0036 20.078 11.0417C20.8167 11.0744 21.5482 11.0907 22.2727 11.0907C22.713 11.0907 23.1462 11.0853 23.5724 11.0744C23.9985 11.0635 24.4246 11.0417 24.8507 11.0091H24.8934C25.0567 11.0091 25.1917 11.0526 25.2982 11.1398C25.4048 11.2214 25.458 11.3222 25.458 11.442C25.458 11.5509 25.4083 11.6462 25.3089 11.7278C25.2094 11.8041 25.0851 11.8476 24.936 11.8585C24.6732 11.8748 24.4069 11.8912 24.137 11.9075C23.8742 11.9184 23.6079 11.9293 23.338 11.9402L22.9864 22.1334H23.2954C23.7783 22.1334 24.2577 22.1361 24.7336 22.1415C25.2094 22.147 25.6675 22.1552 26.1079 22.166C26.5553 22.1715 26.9744 22.1797 27.365 22.1905C27.7556 22.2014 28.1072 22.215 28.4197 22.2314L29.208 18.8173C29.2293 18.7084 29.2933 18.6213 29.3998 18.556C29.5063 18.4852 29.6235 18.4498 29.7513 18.4498C29.9076 18.4498 30.0425 18.4961 30.1562 18.5886C30.2698 18.6758 30.3266 18.7737 30.3266 18.8826C30.3266 18.899 30.3231 18.9126 30.316 18.9235C30.3088 18.9344 30.3053 18.948 30.3053 18.9644L29.4317 22.7623ZM44.5489 15.3542C44.5489 14.9132 44.4602 14.5239 44.2826 14.1863C44.1121 13.8433 43.8777 13.5465 43.5795 13.296C43.2883 13.0401 42.9403 12.825 42.5354 12.6508C42.1377 12.4711 41.7116 12.3268 41.257 12.2179C40.8025 12.1035 40.3301 12.0191 39.8401 11.9647C39.3501 11.9103 38.8707 11.8748 38.4019 11.8585H37.6562L37.4218 18.752C37.642 18.7955 37.8799 18.8282 38.1356 18.85C38.3913 18.8718 38.6611 18.8826 38.9452 18.8826C39.691 18.8826 40.4012 18.8092 41.0759 18.6621C41.7577 18.5097 42.3543 18.2864 42.8657 17.9924C43.3841 17.6983 43.7925 17.3308 44.0908 16.8898C44.3962 16.4487 44.5489 15.9369 44.5489 15.3542ZM38.9452 19.7402C38.6611 19.7402 38.3877 19.7321 38.1249 19.7157C37.8692 19.694 37.6277 19.6613 37.4005 19.6178L37.3153 22.1987C37.5851 22.215 37.8586 22.2314 38.1356 22.2477C38.4196 22.2641 38.7038 22.2804 38.9878 22.2967C39.1299 22.3131 39.2471 22.3621 39.3394 22.4438C39.4388 22.5254 39.4886 22.6207 39.4886 22.7296C39.4886 22.8548 39.4282 22.9556 39.3074 23.0318C39.1867 23.108 39.0589 23.1462 38.9239 23.1462H38.8813C38.3131 23.1026 37.745 23.0699 37.1768 23.0481C36.6157 23.0264 36.0511 23.0155 35.4829 23.0155C34.9218 23.0155 34.3642 23.0264 33.8103 23.0481C33.2634 23.0699 32.713 23.1026 32.159 23.1462H32.1164C31.9601 23.1462 31.8252 23.1026 31.7116 23.0155C31.605 22.9338 31.5518 22.8385 31.5518 22.7296C31.5518 22.6207 31.5979 22.5254 31.6903 22.4438C31.7897 22.3621 31.9104 22.3131 32.0525 22.2967C32.3152 22.2804 32.578 22.2641 32.8408 22.2477C33.1107 22.2314 33.377 22.215 33.6398 22.1987L33.8848 12.0627C33.3593 12.128 32.9686 12.1934 32.713 12.2587C32.4644 12.3241 32.333 12.3567 32.3188 12.3567C32.2336 12.384 32.1661 12.3976 32.1164 12.3976C31.9601 12.3976 31.8252 12.3513 31.7116 12.2587C31.605 12.1662 31.5518 12.0654 31.5518 11.9565C31.5518 11.8748 31.5802 11.7959 31.637 11.7196C31.7009 11.6435 31.7897 11.589 31.9033 11.5563C31.9246 11.5509 32.056 11.5209 32.2975 11.4665C32.539 11.4066 32.887 11.3412 33.3415 11.2704C33.8032 11.1997 34.3749 11.137 35.0567 11.0826C35.7386 11.0227 36.534 10.9928 37.4431 10.9928C37.5993 10.9928 37.7591 10.9928 37.9225 10.9928C38.093 10.9928 38.2599 10.9982 38.4232 11.0091C39.0411 11.0254 39.6483 11.0717 40.2449 11.1479C40.8415 11.2241 41.4097 11.3412 41.9495 11.4991C42.4893 11.6516 42.9829 11.8422 43.4303 12.0709C43.8849 12.2996 44.279 12.5745 44.6128 12.8958C44.9467 13.2116 45.2059 13.5737 45.3905 13.9821C45.5752 14.3905 45.6675 14.8479 45.6675 15.3542C45.6675 15.8334 45.5752 16.2745 45.3905 16.6774C45.2059 17.0749 44.9502 17.437 44.6235 17.7637C44.3039 18.085 43.9275 18.3708 43.4942 18.6213C43.061 18.8663 42.5923 19.0732 42.088 19.242C41.5908 19.4054 41.0723 19.5306 40.5326 19.6178C39.9999 19.6994 39.4708 19.7402 38.9452 19.7402Z" fill="#fbb"/>
    </svg>
    <svg id='menuopen' width="40" height="40" viewBox="0 0 300 300" fill="none" xmlns="http://www.w3.org/2000/svg">
        <path d="M9.99988 140C9.99988 131.716 16.7156 125 24.9999 125H275C283.284 125 290 131.716 290 140V160C290 168.284 283.284 175 275 175H24.9999C16.7156 175 9.99988 168.284 9.99988 160V140Z" fill="#fdd"/>
        <rect x="10" y="240" width="280" height="50" rx="15" fill="#fdd"/>
        <rect x="10" y="10" width="280" height="50" rx="15" fill="#fdd"/>
    </svg>
        <svg id="menuclose" 
        xmlns="http://www.w3.org/2000/svg" 
        x="0px" 
        y="0px"
        width="40px" 
        height="40px" 
        viewBox="0 0 41.756 41.756" 
        style="enable-background:new 0 0 41.756 41.756;"
        xml:space="preserve">
        <g fill="#fdd">
            <path d="M27.948,20.878L40.291,8.536c1.953-1.953,1.953-5.119,0-7.071c-1.951-1.952-5.119-1.952-7.07,0L20.878,13.809L8.535,1.465
            c-1.951-1.952-5.119-1.952-7.07,0c-1.953,1.953-1.953,5.119,0,7.071l12.342,12.342L1.465,33.22c-1.953,1.953-1.953,5.119,0,7.071
            C2.44,41.268,3.721,41.755,5,41.755c1.278,0,2.56-0.487,3.535-1.464l12.343-12.342l12.343,12.343
            c0.976,0.977,2.256,1.464,3.535,1.464s2.56-0.487,3.535-1.464c1.953-1.953,1.953-5.119,0-7.071L27.948,20.878z"/>
        </g>
    </svg>

</svg>